<?xml version="1.0" encoding="UTF-8" standalone="no"?>
<!-- Generator: Adobe Illustrator 25.2.1, SVG Export Plug-In . SVG Version: 6.00 Build 0)  -->

<svg
   version="1.1"
   id="Layer_1"
   x="0px"
   y="0px"
   viewBox="0 0 1113.6 301.60001"
   xml:space="preserve"
   sodipodi:docname="algorand.svg"
   width="1113.6"
   height="301.60001"
   inkscape:version="1.1.2 (0a00cf5339, 2022-02-04, custom)"
   xmlns:inkscape="http://www.inkscape.org/namespaces/inkscape"
   xmlns:sodipodi="http://sodipodi.sourceforge.net/DTD/sodipodi-0.dtd"
   xmlns="http://www.w3.org/2000/svg"
   xmlns:svg="http://www.w3.org/2000/svg"><defs
   id="defs26" /><sodipodi:namedview
   id="namedview24"
   pagecolor="#505050"
   bordercolor="#ffffff"
   borderopacity="1"
   inkscape:pageshadow="0"
   inkscape:pageopacity="0"
   inkscape:pagecheckerboard="1"
   showgrid="false"
   fit-margin-top="0"
   fit-margin-left="0"
   fit-margin-right="0"
   fit-margin-bottom="0"
   inkscape:zoom="0.83"
   inkscape:cx="416.26506"
   inkscape:cy="151.20482"
   inkscape:window-width="2256"
   inkscape:window-height="1504"
   inkscape:window-x="0"
   inkscape:window-y="0"
   inkscape:window-maximized="1"
   inkscape:current-layer="Layer_1" />
<g
   id="g21"
   transform="translate(-164.7,-173.7)">
	<path
   d="M 457.8,233.2 V 413.7 H 421 V 233.2 Z"
   id="path2" />
	<path
   d="m 608,292 v 122.1 c 0,37.9 -29.5,61.2 -65.6,61.2 -34.8,0 -60.8,-21.6 -63.3,-52.1 l 36.7,0.2 c 1.5,13 12.9,18.6 27.9,18.6 14.2,0 27.4,-7.6 27.4,-27.4 V 399 c -9.4,6.1 -21.4,9.7 -34.8,9.7 -33.6,0 -60.5,-27.2 -60.5,-58.5 0,-36.4 27,-60.8 60.5,-60.8 13.5,0 25.4,3.6 34.8,9.7 v -6.6 z m -36.8,71.9 v -29.7 c -7.5,-10.9 -17.9,-14.5 -28.2,-14.5 -18.1,0 -30.7,12.1 -30.7,30.5 0,13.5 12.6,28.3 30.7,28.3 10.3,-0.1 20.7,-3.8 28.2,-14.6 z"
   id="path4" />
	<path
   d="m 754.8,351.4 c 0,37.6 -27.8,64.4 -65.1,64.4 -37.6,0 -65.4,-26.8 -65.4,-64.4 0,-37.3 27.8,-64.6 65.4,-64.6 37.3,0 65.1,27.3 65.1,64.6 z m -35.5,0 c 0,-17.7 -11.6,-32 -29.6,-32 -18.2,0 -29.8,14.3 -29.8,32 0,18.2 11.6,31.8 29.8,31.8 17.9,-0.1 29.6,-13.6 29.6,-31.8 z"
   id="path6" />
	<path
   d="m 983.3,292.2 v 121.3 l -36.1,0.2 v -6.9 c -9.4,6.1 -21.4,9.9 -34.8,9.9 -33.6,0 -60.5,-28.5 -60.5,-63.6 0,-35.3 27,-63.8 60.5,-63.8 13.5,0 25.4,3.8 34.8,9.9 v -6.9 z m -36.1,79.5 v -37.2 c -7.6,-10.8 -18.2,-13.8 -28.8,-13.8 -18.5,0 -31.3,14.8 -31.3,32.5 0,17.5 12.8,32.3 31.3,32.3 10.6,-0.1 21.2,-3 28.8,-13.8 z"
   id="path8" />
	<path
   d="m 1131.7,347.8 v 65.9 h -35.5 v -61.6 c 0,-19.8 -9.9,-30.3 -27.5,-30.3 -9.2,0 -19.3,5.3 -28,15.5 v 76.4 h -36.3 V 292.4 h 36.3 v 9.2 c 9.9,-7.9 21.4,-12.2 35.1,-12.2 32.4,0 55.9,22.8 55.9,58.4 z"
   id="path10" />
	<g
   id="lINT7W_1_">
		<g
   id="g14">
			<polygon
   points="342.3,322.9 289.8,413.6 247.9,413.6 328.9,273.2 315.9,224.4 206.6,413.7 164.7,413.7 303.2,173.7 339.9,173.7 356,233.3 393.9,233.3 368,278.3 404.2,413.6 366.7,413.6 "
   id="polygon12" />
		</g>
	</g>
	<path
   d="m 1278.3,233.2 v 180.5 h -36.8 v -6.9 c -9.4,6.1 -21.4,9.9 -34.8,9.9 -33.6,0 -60.5,-28.5 -60.5,-63.8 0,-35.1 27,-63.6 60.5,-63.6 13.5,0 25.4,3.8 34.8,9.9 v -66.1 z m -36.8,138.6 v -37.5 c -7.7,-10.9 -18.4,-13.9 -29,-13.9 -18.6,0 -31.5,14.9 -31.5,32.5 0,17.9 12.9,32.8 31.5,32.8 10.6,0 21.3,-3 29,-13.9 z"
   id="path17" />
	<path
   d="m 845.3,323 c -8,1 -26.8,1.9 -37.8,17.1 v 73.7 H 771.2 V 292.6 h 36.3 v 9.1 c 8.3,-7.1 20.8,-11.3 37.8,-9.6"
   id="path19" />
</g>
</svg>
