<?xml version="1.0" encoding="UTF-8" standalone="no"?>
<!-- Created with Inkscape (http://www.inkscape.org/) -->

<svg
   width="53.967289mm"
   height="12.858759mm"
   viewBox="0 0 53.967289 12.858759"
   version="1.1"
   id="svg5"
   inkscape:version="1.1.2 (0a00cf5339, 2022-02-04, custom)"
   sodipodi:docname="sprig.svg"
   xmlns:inkscape="http://www.inkscape.org/namespaces/inkscape"
   xmlns:sodipodi="http://sodipodi.sourceforge.net/DTD/sodipodi-0.dtd"
   xmlns="http://www.w3.org/2000/svg"
   xmlns:svg="http://www.w3.org/2000/svg">
  <sodipodi:namedview
     id="namedview7"
     pagecolor="#505050"
     bordercolor="#ffffff"
     borderopacity="1"
     inkscape:pageshadow="0"
     inkscape:pageopacity="0"
     inkscape:pagecheckerboard="1"
     inkscape:document-units="mm"
     showgrid="false"
     fit-margin-top="0"
     fit-margin-left="0"
     fit-margin-right="0"
     fit-margin-bottom="0"
     inkscape:zoom="3.3883224"
     inkscape:cx="69.798553"
     inkscape:cy="68.913159"
     inkscape:window-width="2256"
     inkscape:window-height="1452"
     inkscape:window-x="0"
     inkscape:window-y="0"
     inkscape:window-maximized="1"
     inkscape:current-layer="text2234" />
  <defs
     id="defs2" />
  <g
     inkscape:label="Layer 1"
     inkscape:groupmode="layer"
     id="layer1"
     transform="translate(-15.833303,-67.299598)">
    <g
       aria-label="SPRIG"
       id="text2234"
       style="font-size:17.6389px;line-height:1.25;font-family:'Nunito Heavy';-inkscape-font-specification:'Nunito Heavy, Normal';text-align:center;letter-spacing:0px;text-anchor:middle;stroke-width:0.264583">
      <path
         d="m 20.940864,80.158352 q -0.670278,0 -1.42875,-0.105833 -0.758473,-0.08819 -1.464028,-0.246944 -0.687917,-0.176389 -1.234722,-0.388056 -0.564445,-0.229305 -0.79375,-0.652639 -0.229306,-0.440972 -0.176389,-0.934861 0.05292,-0.493889 0.335139,-0.881944 0.282222,-0.388056 0.758472,-0.529167 0.47625,-0.15875 1.075972,0.08819 0.617361,0.246945 1.446389,0.405695 0.846667,0.15875 1.481667,0.15875 1.023055,0 1.393472,-0.229306 0.370417,-0.229305 0.370417,-0.529166 0,-0.282223 -0.264584,-0.458612 -0.246944,-0.194027 -0.934861,-0.335138 l -2.116667,-0.458612 q -3.369027,-0.723194 -3.369027,-3.580694 0,-1.27 0.687916,-2.204861 0.687917,-0.934861 1.922639,-1.446389 1.234722,-0.529167 2.875139,-0.529167 0.829028,0 1.763889,0.176389 0.934861,0.176389 1.605139,0.511528 0.47625,0.229305 0.687917,0.652639 0.229305,0.423333 0.194028,0.881944 -0.03528,0.458611 -0.299862,0.829028 -0.246944,0.352778 -0.705555,0.493889 -0.458611,0.123472 -1.11125,-0.105833 -0.440972,-0.15875 -1.058334,-0.246945 -0.617361,-0.105833 -1.128888,-0.105833 -0.864306,0 -1.305278,0.246944 -0.423334,0.246945 -0.423334,0.652639 0,0.229306 0.246945,0.423333 0.246944,0.176389 0.9525,0.3175 l 2.116667,0.458612 q 3.369027,0.740833 3.369027,3.510139 0,1.252361 -0.687916,2.204861 -0.670278,0.934861 -1.905,1.446389 -1.217084,0.511527 -2.875139,0.511527 z"
         style="font-size:17.6389px"
         id="path7246" />
      <path
         d="m 29.725033,80.123075 q -0.917222,0 -1.411111,-0.493889 -0.493889,-0.511528 -0.493889,-1.42875 v -8.766528 q 0,-0.934861 0.493889,-1.42875 0.511527,-0.493889 1.42875,-0.493889 h 4.392083 q 2.151945,0 3.316111,1.128889 1.181806,1.11125 1.181806,3.051528 0,1.940277 -1.181806,3.069166 -1.164166,1.11125 -3.316111,1.11125 h -2.522361 v 2.328334 q 0,0.917222 -0.47625,1.42875 -0.47625,0.493889 -1.411111,0.493889 z m 1.887361,-7.14375 H 33.4292 q 0.776111,0 1.181805,-0.3175 0.423333,-0.317501 0.423333,-0.970139 0,-0.670278 -0.423333,-0.970139 -0.405694,-0.3175 -1.181805,-0.3175 h -1.816806 z"
         style="font-size:17.6389px"
         id="path7248" />
      <path
         d="m 41.878214,80.123075 q -0.917222,0 -1.411111,-0.493889 -0.493889,-0.511528 -0.493889,-1.42875 v -8.766528 q 0,-0.934861 0.493889,-1.42875 0.511528,-0.493889 1.42875,-0.493889 h 4.392083 q 2.151945,0 3.316111,1.075972 1.181806,1.058333 1.181806,2.910417 0,1.393472 -0.687917,2.363611 -0.687916,0.970139 -1.975555,1.358194 1.058333,0.264584 1.658055,1.358195 l 0.617361,1.11125 q 0.335139,0.599722 0.299862,1.164167 -0.01764,0.546805 -0.440973,0.917222 -0.405694,0.352778 -1.234722,0.352778 -0.79375,0 -1.305278,-0.3175 -0.511528,-0.335139 -0.899583,-1.040695 l -1.516945,-2.769305 q -0.141111,-0.264584 -0.405694,-0.370417 -0.264583,-0.123472 -0.546806,-0.123472 h -0.582083 v 2.69875 q 0,0.917222 -0.47625,1.42875 -0.47625,0.493889 -1.411111,0.493889 z m 1.887361,-7.267223 h 1.816806 q 0.776111,0 1.181805,-0.299861 0.423334,-0.299861 0.423334,-0.934861 0,-0.617361 -0.423334,-0.917222 -0.405694,-0.299861 -1.181805,-0.299861 h -1.816806 z"
         style="font-size:17.6389px"
         id="path7250" />
      <path
         d="m 54.542944,80.123075 q -0.917222,0 -1.411111,-0.493889 -0.493889,-0.511528 -0.493889,-1.446389 v -8.907639 q 0,-0.934861 0.493889,-1.42875 0.493889,-0.511528 1.411111,-0.511528 0.917222,0 1.393472,0.511528 0.493889,0.493889 0.493889,1.42875 v 8.907639 q 0,0.934861 -0.47625,1.446389 -0.47625,0.493889 -1.411111,0.493889 z"
         style="font-size:17.6389px"
         id="path7252" />
      <path
         d="m 65.002814,80.158352 q -2.187222,0 -3.721805,-0.811388 -1.516945,-0.811389 -2.328334,-2.240139 -0.79375,-1.42875 -0.79375,-3.298473 0,-1.975555 0.846667,-3.439583 0.864306,-1.464028 2.469444,-2.257778 1.605139,-0.811389 3.862917,-0.811389 0.829028,0 1.693334,0.141111 0.864305,0.123472 1.763889,0.511528 0.529166,0.229306 0.740833,0.670278 0.211667,0.423333 0.15875,0.917222 -0.05292,0.493889 -0.335139,0.899583 -0.264583,0.405695 -0.740833,0.564445 -0.458612,0.15875 -1.058334,-0.08819 -0.440972,-0.176388 -1.023055,-0.282222 -0.564445,-0.105833 -1.164167,-0.105833 -1.675694,0 -2.487083,0.829028 -0.79375,0.829027 -0.79375,2.451805 0,1.5875 0.79375,2.398889 0.811389,0.79375 2.345972,0.79375 0.635,0 1.499305,-0.194028 v -1.411111 h -0.829027 q -1.464028,0 -1.464028,-1.305277 0,-1.305278 1.464028,-1.305278 h 2.434166 q 1.464028,0 1.464028,1.464028 v 3.686527 q 0,0.617362 -0.264583,1.040695 -0.246945,0.423333 -0.811389,0.617361 -1.781528,0.564444 -3.721806,0.564444 z"
         style="font-size:17.6389px"
         id="path7254" />
    </g>
  </g>
</svg>
